<svg xmlns="http://www.w3.org/2000/svg" viewBox="0 0 320 320">
  <rect width="320" height="320" rx="64" fill="#151618"/>
  <path fill="#3E65F4" d="M267.7 147.2c-12.2-12.3-24.5-24.5-36.7-36.8-4.5-4.5-8.6-9.6-13.6-13.5-6.6-5.1-12.5-4.2-18.4 1.7-32.8 32.7-65.3 65.7-98.2 98.3-3.9 3.9-4.4 3.9-5.3 3.2 2.4-5.1 4.5-10.4 7.4-15.2 1.9-3 1.1-4.5-1-6.6-7.3-7.1-14.5-14.4-21.7-21.5 10.4-10.4 20.4-20.4 30.9-31 8.1 8.2 16.3 16.5 24.1 24.4 6.3-6.1 12.6-12.2 19-18.5-11.2-11.1-21.9-22-32.9-32.7-6.6-6.4-14.6-6.8-20.6-.9-16.4 16.1-32.5 32.5-48.8 48.7-4.7 4.7-5.2 15.1.4 20.4 16.1 15.2 31.5 31.2 47.2 46.8 8.4 8.4 13.8 8.4 22.1.1 33.9-33.9 67.9-67.8 101.8-101.7.5-.2 1-.5 1.4-.7-.2.5-.4 1-.6 1.6-2.9 6.2-5.8 12.4-8.8 18.8 8.4 8.2 16.5 16.3 24.8 24.4-13.3 13.4-26.4 26.4-39.4 39.5-5.9 5.9-6.3 14.9-1 20.3 5.7 5.8 13.4 5.3 20-1.4 16.1-16.2 32.1-32.4 48.1-48.6 5.7-6 5.7-13.2-.2-19.1z"/>
</svg>
